<svg width="240" height="70" xmlns="http://www.w3.org/2000/svg">
  <defs>
    <linearGradient id="logoGradient" x1="0%" y1="0%" x2="100%" y2="100%">
      <stop offset="0%" stop-color="#7928CA" />
      <stop offset="100%" stop-color="#00C6FF" />
    </linearGradient>
    <linearGradient id="textGradient" x1="0%" y1="0%" x2="100%" y2="0%">
      <stop offset="0%" stop-color="#ffffff" />
      <stop offset="100%" stop-color="#b3b7d1" />
    </linearGradient>
    <filter id="glow" x="-20%" y="-20%" width="140%" height="140%">
      <feGaussianBlur stdDeviation="2" result="blur" />
      <feColorMatrix in="blur" mode="matrix" values="1 0 0 0 0  0 1 0 0 0  0 0 1 0 0  0 0 0 18 -7" result="glow" />
      <feBlend in="SourceGraphic" in2="glow" mode="normal" />
    </filter>
  </defs>
  
  <!-- Shield shape with gradient -->
  <path d="M20,10 L55,10 L55,40 C55,55 37.5,60 37.5,60 C37.5,60 20,55 20,40 Z" 
        fill="url(#logoGradient)" 
        filter="url(#glow)" 
        stroke="rgba(255,255,255,0.3)" 
        stroke-width="1" />
  
  <!-- College Emblem: Book of Knowledge -->
  <path d="M30,25 L45,25 L45,38 C45,38 37.5,40 37.5,40 C37.5,40 30,38 30,38 Z" 
        fill="#ffffff" 
        opacity="0.9" />
  <path d="M37.5,25 L37.5,40" 
        stroke="#13131f" 
        stroke-width="1" />
  
  <!-- Torch of Knowledge -->
  <path d="M37.5,18 L37.5,23" 
        stroke="#ffffff" 
        stroke-width="2" 
        stroke-linecap="round" />
  <path d="M34,15 C34,15 37.5,10 41,15" 
        fill="transparent" 
        stroke="#ffffff" 
        stroke-width="2" 
        stroke-linecap="round" />
        
  <!-- Est. 1938 -->
  <text x="27" y="50" 
        font-family="Montserrat, sans-serif" 
        font-size="6" 
        fill="#ffffff" 
        text-anchor="middle">EST. 1938</text>
    
  <!-- College Name with text gradient -->
  <text x="70" y="32" 
        font-family="Montserrat, sans-serif" 
        font-size="24" 
        font-weight="800" 
        fill="url(#textGradient)"
        filter="url(#glow)">ZAMINDAR</text>
  <text x="70" y="48" 
        font-family="Poppins, sans-serif" 
        font-size="14" 
        fill="#b3b7d1">COLLEGE</text>
        
  <!-- Decorative elements -->
  <path d="M65,34 L210,34" 
        stroke="url(#logoGradient)" 
        stroke-width="1" 
        opacity="0.5" />
</svg>